<svg width="18" height="18" viewBox="0 0 18 18" fill="none" xmlns="http://www.w3.org/2000/svg">
<path d="M17.25 4.28578C17.25 3.66063 17.0017 3.06108 16.5596 2.61903C16.1176 2.17698 15.518 1.92864 14.8929 1.92864H14.3036V1.35593C14.3036 1.03882 14.0598 0.766642 13.7426 0.750805C13.663 0.746966 13.5833 0.759344 13.5086 0.787188C13.4338 0.815032 13.3655 0.857764 13.3078 0.912793C13.25 0.967821 13.204 1.034 13.1726 1.10732C13.1412 1.18065 13.125 1.25958 13.125 1.33935V1.92864H4.875V1.35593C4.875 1.03882 4.63118 0.766642 4.31407 0.750805C4.2344 0.746966 4.15477 0.759344 4.08002 0.787188C4.00527 0.815032 3.93695 0.857764 3.8792 0.912793C3.82145 0.967821 3.77547 1.034 3.74405 1.10732C3.71264 1.18065 3.69644 1.25958 3.69643 1.33935V1.92864H3.10714C2.48199 1.92864 1.88244 2.17698 1.44039 2.61903C0.998341 3.06108 0.75 3.66063 0.75 4.28578V4.72775C0.75 4.76682 0.765521 4.80429 0.793149 4.83192C0.820778 4.85955 0.858249 4.87507 0.897321 4.87507H17.1027C17.1418 4.87507 17.1792 4.85955 17.2069 4.83192C17.2345 4.80429 17.25 4.76682 17.25 4.72775V4.28578ZM0.75 14.8929C0.75 15.5181 0.998341 16.1176 1.44039 16.5597C1.88244 17.0017 2.48199 17.2501 3.10714 17.2501H14.8929C15.518 17.2501 16.1176 17.0017 16.5596 16.5597C17.0017 16.1176 17.25 15.5181 17.25 14.8929V6.16413C17.25 6.13483 17.2384 6.10672 17.2176 6.086C17.1969 6.06528 17.1688 6.05364 17.1395 6.05364H0.860491C0.831187 6.05364 0.803083 6.06528 0.782362 6.086C0.761641 6.10672 0.75 6.13483 0.75 6.16413V14.8929ZM13.4196 7.23221C13.5945 7.23221 13.7654 7.28405 13.9107 7.38118C14.0561 7.47831 14.1694 7.61636 14.2363 7.77787C14.3032 7.93939 14.3207 8.11712 14.2866 8.28859C14.2525 8.46005 14.1683 8.61755 14.0447 8.74117C13.9211 8.86479 13.7636 8.94898 13.5921 8.98308C13.4206 9.01719 13.2429 8.99969 13.0814 8.93278C12.9199 8.86588 12.7818 8.75258 12.6847 8.60722C12.5876 8.46186 12.5357 8.29096 12.5357 8.11614C12.5357 7.88171 12.6288 7.65688 12.7946 7.49111C12.9604 7.32534 13.1852 7.23221 13.4196 7.23221ZM13.4196 10.1786C13.5945 10.1786 13.7654 10.2305 13.9107 10.3276C14.0561 10.4247 14.1694 10.5628 14.2363 10.7243C14.3032 10.8858 14.3207 11.0635 14.2866 11.235C14.2525 11.4065 14.1683 11.564 14.0447 11.6876C13.9211 11.8112 13.7636 11.8954 13.5921 11.9295C13.4206 11.9636 13.2429 11.9461 13.0814 11.8792C12.9199 11.8123 12.7818 11.699 12.6847 11.5537C12.5876 11.4083 12.5357 11.2374 12.5357 11.0626C12.5357 10.8281 12.6288 10.6033 12.7946 10.4375C12.9604 10.2718 13.1852 10.1786 13.4196 10.1786ZM10.4732 7.23221C10.648 7.23221 10.8189 7.28405 10.9643 7.38118C11.1097 7.47831 11.223 7.61636 11.2899 7.77787C11.3568 7.93939 11.3743 8.11712 11.3402 8.28859C11.3061 8.46005 11.2219 8.61755 11.0982 8.74117C10.9746 8.86479 10.8171 8.94898 10.6457 8.98308C10.4742 9.01719 10.2965 8.99969 10.135 8.93278C9.97343 8.86588 9.83538 8.75258 9.73826 8.60722C9.64113 8.46186 9.58929 8.29096 9.58929 8.11614C9.58929 7.88171 9.68241 7.65688 9.84818 7.49111C10.014 7.32534 10.2388 7.23221 10.4732 7.23221ZM10.4732 10.1786C10.648 10.1786 10.8189 10.2305 10.9643 10.3276C11.1097 10.4247 11.223 10.5628 11.2899 10.7243C11.3568 10.8858 11.3743 11.0635 11.3402 11.235C11.3061 11.4065 11.2219 11.564 11.0982 11.6876C10.9746 11.8112 10.8171 11.8954 10.6457 11.9295C10.4742 11.9636 10.2965 11.9461 10.135 11.8792C9.97343 11.8123 9.83538 11.699 9.73826 11.5537C9.64113 11.4083 9.58929 11.2374 9.58929 11.0626C9.58929 10.8281 9.68241 10.6033 9.84818 10.4375C10.014 10.2718 10.2388 10.1786 10.4732 10.1786ZM10.4732 13.1251C10.648 13.1251 10.8189 13.1769 10.9643 13.274C11.1097 13.3712 11.223 13.5092 11.2899 13.6707C11.3568 13.8322 11.3743 14.01 11.3402 14.1814C11.3061 14.3529 11.2219 14.5104 11.0982 14.634C10.9746 14.7576 10.8171 14.8418 10.6457 14.8759C10.4742 14.91 10.2965 14.8925 10.135 14.8256C9.97343 14.7587 9.83538 14.6454 9.73826 14.5001C9.64113 14.3547 9.58929 14.1838 9.58929 14.009C9.58929 13.7746 9.68241 13.5497 9.84818 13.384C10.014 13.2182 10.2388 13.1251 10.4732 13.1251ZM7.52679 10.1786C7.70161 10.1786 7.87251 10.2305 8.01787 10.3276C8.16323 10.4247 8.27653 10.5628 8.34343 10.7243C8.41033 10.8858 8.42784 11.0635 8.39373 11.235C8.35962 11.4065 8.27544 11.564 8.15182 11.6876C8.0282 11.8112 7.8707 11.8954 7.69923 11.9295C7.52777 11.9636 7.35004 11.9461 7.18852 11.8792C7.027 11.8123 6.88895 11.699 6.79183 11.5537C6.6947 11.4083 6.64286 11.2374 6.64286 11.0626C6.64286 10.8281 6.73599 10.6033 6.90175 10.4375C7.06752 10.2718 7.29235 10.1786 7.52679 10.1786ZM7.52679 13.1251C7.70161 13.1251 7.87251 13.1769 8.01787 13.274C8.16323 13.3712 8.27653 13.5092 8.34343 13.6707C8.41033 13.8322 8.42784 14.01 8.39373 14.1814C8.35962 14.3529 8.27544 14.5104 8.15182 14.634C8.0282 14.7576 7.8707 14.8418 7.69923 14.8759C7.52777 14.91 7.35004 14.8925 7.18852 14.8256C7.027 14.7587 6.88895 14.6454 6.79183 14.5001C6.6947 14.3547 6.64286 14.1838 6.64286 14.009C6.64286 13.7746 6.73599 13.5497 6.90175 13.384C7.06752 13.2182 7.29235 13.1251 7.52679 13.1251ZM4.58036 10.1786C4.75518 10.1786 4.92608 10.2305 5.07144 10.3276C5.2168 10.4247 5.3301 10.5628 5.397 10.7243C5.4639 10.8858 5.48141 11.0635 5.4473 11.235C5.4132 11.4065 5.32901 11.564 5.20539 11.6876C5.08177 11.8112 4.92427 11.8954 4.7528 11.9295C4.58134 11.9636 4.40361 11.9461 4.24209 11.8792C4.08058 11.8123 3.94252 11.699 3.8454 11.5537C3.74827 11.4083 3.69643 11.2374 3.69643 11.0626C3.69643 10.8281 3.78956 10.6033 3.95533 10.4375C4.12109 10.2718 4.34592 10.1786 4.58036 10.1786ZM4.58036 13.1251C4.75518 13.1251 4.92608 13.1769 5.07144 13.274C5.2168 13.3712 5.3301 13.5092 5.397 13.6707C5.4639 13.8322 5.48141 14.01 5.4473 14.1814C5.4132 14.3529 5.32901 14.5104 5.20539 14.634C5.08177 14.7576 4.92427 14.8418 4.7528 14.8759C4.58134 14.91 4.40361 14.8925 4.24209 14.8256C4.08058 14.7587 3.94252 14.6454 3.8454 14.5001C3.74827 14.3547 3.69643 14.1838 3.69643 14.009C3.69643 13.7746 3.78956 13.5497 3.95533 13.384C4.12109 13.2182 4.34592 13.1251 4.58036 13.1251Z" fill="#8DD3BB"/>
</svg>
