<svg width="18" height="19" viewBox="0 0 18 19" fill="none" xmlns="http://www.w3.org/2000/svg">
<path d="M13.5222 0.75C13.8302 0.75 14.1255 0.872331 14.3433 1.09008C14.561 1.30783 14.6833 1.60317 14.6833 1.91111V17.0056H16.425C16.579 17.0056 16.7266 17.0667 16.8355 17.1756C16.9444 17.2845 17.0056 17.4321 17.0056 17.5861C17.0056 17.7401 16.9444 17.8878 16.8355 17.9966C16.7266 18.1055 16.579 18.1667 16.425 18.1667H1.33056C1.17658 18.1667 1.02892 18.1055 0.920041 17.9966C0.811165 17.8878 0.75 17.7401 0.75 17.5861C0.75 17.4321 0.811165 17.2845 0.920041 17.1756C1.02892 17.0667 1.17658 17.0056 1.33056 17.0056H3.07222V1.91111C3.07222 1.60317 3.19455 1.30783 3.4123 1.09008C3.63005 0.872331 3.92539 0.75 4.23333 0.75H13.5222ZM11.2 11.2C11.5079 11.2 11.8033 11.0777 12.021 10.8599C12.2388 10.6422 12.3611 10.3468 12.3611 10.0389C12.3611 9.73094 12.2388 9.43561 12.021 9.21786C11.8033 9.00011 11.5079 8.87778 11.2 8.87778C10.8921 8.87778 10.5967 9.00011 10.379 9.21786C10.1612 9.43561 10.0389 9.73094 10.0389 10.0389C10.0389 10.3468 10.1612 10.6422 10.379 10.8599C10.5967 11.0777 10.8921 11.2 11.2 11.2Z" fill="#8DD3BB"/>
</svg>
