<svg width="21" height="20" viewBox="0 0 21 20" fill="none" xmlns="http://www.w3.org/2000/svg">
<path d="M15.3103 4.06001L2.55422 16.8475L1.78125 18.7188L3.6525 17.9458L16.44 5.1897L15.3103 4.06001ZM17.8627 1.50814L17.31 2.06032L18.4397 3.19001L18.9923 2.63736C19.1374 2.49224 19.2188 2.29548 19.2188 2.09032C19.2188 1.88517 19.1374 1.68841 18.9923 1.54329L18.9572 1.50814C18.8853 1.43626 18.8 1.37925 18.7061 1.34035C18.6122 1.30145 18.5116 1.28143 18.4099 1.28143C18.3083 1.28143 18.2076 1.30145 18.1137 1.34035C18.0198 1.37925 17.9345 1.43626 17.8627 1.50814Z" stroke="black" stroke-width="2.0625" stroke-linecap="round" stroke-linejoin="round"/>
</svg>
