<svg width="17" height="20" viewBox="0 0 17 20" fill="none" xmlns="http://www.w3.org/2000/svg">
<path d="M14.1842 10.5555C14.1748 8.95703 14.899 7.75234 16.3615 6.86406C15.5436 5.69219 14.3061 5.04766 12.6748 4.92344C11.1303 4.80156 9.44043 5.82344 8.82168 5.82344C8.16777 5.82344 6.67246 4.96563 5.4959 4.96563C3.06777 5.00313 0.487305 6.90156 0.487305 10.7641C0.487305 11.9055 0.695898 13.0844 1.11309 14.2984C1.6709 15.8969 3.68184 19.8133 5.77949 19.75C6.87637 19.7242 7.65215 18.9719 9.07949 18.9719C10.4646 18.9719 11.1818 19.75 12.4053 19.75C14.5217 19.7195 16.3404 16.1594 16.8701 14.5563C14.0318 13.218 14.1842 10.6375 14.1842 10.5555ZM11.7209 3.40703C12.9092 1.99609 12.8014 0.711719 12.7662 0.25C11.7162 0.310938 10.5021 0.964844 9.81074 1.76875C9.04902 2.63125 8.60137 3.69766 8.69746 4.9C9.83184 4.98672 10.8678 4.40313 11.7209 3.40703Z" fill="black"/>
</svg>
