<svg width="16" height="18" viewBox="0 0 16 18" fill="none" xmlns="http://www.w3.org/2000/svg">
<path d="M11.187 12.915L11.2029 12.9239L11.2155 12.9107C11.446 12.6697 11.723 12.4778 12.0297 12.3468C12.3364 12.2158 12.6665 12.1483 13.0001 12.1485C13.5173 12.1484 14.0216 12.3103 14.4422 12.6115C14.8627 12.9126 15.1784 13.3378 15.3449 13.8275C15.5115 14.3172 15.5206 14.8468 15.3708 15.3419C15.2211 15.837 14.9201 16.2728 14.5101 16.5881C14.1001 16.9034 13.6017 17.0825 13.0848 17.1001C12.5678 17.1178 12.0583 16.9731 11.6278 16.6865C11.1972 16.3998 10.8673 15.9856 10.6841 15.5018C10.501 15.0181 10.4739 14.4891 10.6067 13.9892L10.6114 13.9717L10.5956 13.9628L4.81432 10.7101L4.79849 10.7011L4.78591 10.7143C4.44382 11.071 4.00283 11.3171 3.51967 11.4211C3.03651 11.5251 2.53329 11.4822 2.07474 11.2978C1.61618 11.1135 1.22328 10.7961 0.94656 10.3867C0.669843 9.97716 0.521973 9.49424 0.521973 9.00002C0.521973 8.50579 0.669843 8.02287 0.94656 7.61338C1.22328 7.20389 1.61618 6.88655 2.07474 6.7022C2.53329 6.51785 3.03651 6.47491 3.51967 6.5789C4.00283 6.6829 4.44382 6.92908 4.78591 7.28577L4.79849 7.29888L4.81432 7.28997L10.5956 4.03724L10.6114 4.02833L10.6067 4.01078C10.4521 3.43032 10.5144 2.8134 10.782 2.27559C11.0496 1.73778 11.5041 1.31599 12.0604 1.08924C12.6166 0.86248 13.2365 0.846316 13.8038 1.04377C14.3711 1.24123 14.847 1.63876 15.1422 2.16189C15.4375 2.68502 15.5319 3.29786 15.4077 3.88559C15.2836 4.47332 14.9494 4.99562 14.4678 5.35464C13.9862 5.71366 13.3902 5.88477 12.7915 5.83591C12.1928 5.78705 11.6324 5.52157 11.2154 5.08921L11.2028 5.07618L11.187 5.08506L5.40579 8.33779L5.38996 8.3467L5.39463 8.36425C5.50557 8.78084 5.50557 9.2192 5.39463 9.63578L5.38996 9.65333L5.40579 9.66224L11.187 12.915Z" fill="black" stroke="#112211" stroke-width="0.046875"/>
</svg>
