<svg width="378" height="212" viewBox="0 0 378 212" fill="none" xmlns="http://www.w3.org/2000/svg">
<rect width="378" height="212" rx="16" fill="#8DD3BB"/>
<path d="M22.864 25.8L25.6 27.312L24.664 28.944L21.88 27.312L21.904 30.408H20.08L20.104 27.336L17.344 28.944L16.384 27.312L19.144 25.8L16.384 24.288L17.344 22.632L20.104 24.264L20.08 21.192H21.904L21.88 24.288L24.664 22.632L25.6 24.288L22.864 25.8ZM33.3171 25.8L36.0531 27.312L35.1171 28.944L32.3331 27.312L32.3571 30.408H30.5331L30.5571 27.336L27.7971 28.944L26.8371 27.312L29.5971 25.8L26.8371 24.288L27.7971 22.632L30.5571 24.264L30.5331 21.192H32.3571L32.3331 24.288L35.1171 22.632L36.0531 24.288L33.3171 25.8ZM43.7703 25.8L46.5063 27.312L45.5703 28.944L42.7863 27.312L42.8103 30.408H40.9863L41.0103 27.336L38.2503 28.944L37.2903 27.312L40.0503 25.8L37.2903 24.288L38.2503 22.632L41.0103 24.264L40.9863 21.192H42.8103L42.7863 24.288L45.5703 22.632L46.5063 24.288L43.7703 25.8ZM54.2234 25.8L56.9594 27.312L56.0234 28.944L53.2394 27.312L53.2634 30.408H51.4394L51.4634 27.336L48.7034 28.944L47.7434 27.312L50.5034 25.8L47.7434 24.288L48.7034 22.632L51.4634 24.264L51.4394 21.192H53.2634L53.2394 24.288L56.0234 22.632L56.9594 24.288L54.2234 25.8ZM70.8406 25.8L73.5766 27.312L72.6406 28.944L69.8566 27.312L69.8806 30.408H68.0566L68.0806 27.336L65.3206 28.944L64.3606 27.312L67.1206 25.8L64.3606 24.288L65.3206 22.632L68.0806 24.264L68.0566 21.192H69.8806L69.8566 24.288L72.6406 22.632L73.5766 24.288L70.8406 25.8ZM81.2937 25.8L84.0297 27.312L83.0937 28.944L80.3097 27.312L80.3337 30.408H78.5097L78.5337 27.336L75.7737 28.944L74.8137 27.312L77.5737 25.8L74.8137 24.288L75.7737 22.632L78.5337 24.264L78.5097 21.192H80.3337L80.3097 24.288L83.0937 22.632L84.0297 24.288L81.2937 25.8ZM91.7468 25.8L94.4828 27.312L93.5468 28.944L90.7628 27.312L90.7868 30.408H88.9628L88.9868 27.336L86.2268 28.944L85.2668 27.312L88.0268 25.8L85.2668 24.288L86.2268 22.632L88.9868 24.264L88.9628 21.192H90.7868L90.7628 24.288L93.5468 22.632L94.4828 24.288L91.7468 25.8ZM102.2 25.8L104.936 27.312L104 28.944L101.216 27.312L101.24 30.408H99.4159L99.4399 27.336L96.6799 28.944L95.7199 27.312L98.4799 25.8L95.7199 24.288L96.6799 22.632L99.4399 24.264L99.4159 21.192H101.24L101.216 24.288L104 22.632L104.936 24.288L102.2 25.8ZM118.817 25.8L121.553 27.312L120.617 28.944L117.833 27.312L117.857 30.408H116.033L116.057 27.336L113.297 28.944L112.337 27.312L115.097 25.8L112.337 24.288L113.297 22.632L116.057 24.264L116.033 21.192H117.857L117.833 24.288L120.617 22.632L121.553 24.288L118.817 25.8ZM129.27 25.8L132.006 27.312L131.07 28.944L128.286 27.312L128.31 30.408H126.486L126.51 27.336L123.75 28.944L122.79 27.312L125.55 25.8L122.79 24.288L123.75 22.632L126.51 24.264L126.486 21.192H128.31L128.286 24.288L131.07 22.632L132.006 24.288L129.27 25.8ZM139.723 25.8L142.459 27.312L141.523 28.944L138.739 27.312L138.763 30.408H136.939L136.963 27.336L134.203 28.944L133.243 27.312L136.003 25.8L133.243 24.288L134.203 22.632L136.963 24.264L136.939 21.192H138.763L138.739 24.288L141.523 22.632L142.459 24.288L139.723 25.8ZM150.177 25.8L152.913 27.312L151.977 28.944L149.193 27.312L149.217 30.408H147.393L147.417 27.336L144.657 28.944L143.697 27.312L146.457 25.8L143.697 24.288L144.657 22.632L147.417 24.264L147.393 21.192H149.217L149.193 24.288L151.977 22.632L152.913 24.288L150.177 25.8Z" fill="#112211"/>
<path d="M17.088 60.912V58.032L28.128 43.6H32.576L21.696 58.032L19.616 57.392H37.376V60.912H17.088ZM29.376 66V60.912L29.504 57.392V52.88H33.408V66H29.376ZM45.8855 66.32C44.3068 66.32 42.7602 66.096 41.2455 65.648C39.7522 65.1787 38.4935 64.5387 37.4695 63.728L39.2615 60.496C40.0722 61.1573 41.0535 61.6907 42.2055 62.096C43.3575 62.5013 44.5628 62.704 45.8215 62.704C47.3148 62.704 48.4775 62.4053 49.3095 61.808C50.1415 61.1893 50.5575 60.3573 50.5575 59.312C50.5575 58.288 50.1735 57.4773 49.4055 56.88C48.6375 56.2827 47.4002 55.984 45.6935 55.984H43.6455V53.136L50.0455 45.52L50.5895 47.088H38.5575V43.6H53.8215V46.384L47.4215 54L45.2455 52.72H46.4935C49.2455 52.72 51.3042 53.3387 52.6695 54.576C54.0562 55.792 54.7495 57.36 54.7495 59.28C54.7495 60.5387 54.4295 61.7013 53.7895 62.768C53.1495 63.8347 52.1682 64.6987 50.8455 65.36C49.5442 66 47.8908 66.32 45.8855 66.32ZM57.0263 66V63.216L65.9223 54.768C66.6689 54.064 67.2236 53.4453 67.5863 52.912C67.9489 52.3787 68.1836 51.888 68.2903 51.44C68.4183 50.9707 68.4823 50.5333 68.4823 50.128C68.4823 49.104 68.1303 48.3147 67.4263 47.76C66.7223 47.184 65.6876 46.896 64.3223 46.896C63.2343 46.896 62.2423 47.088 61.3463 47.472C60.4716 47.856 59.7143 48.4427 59.0743 49.232L56.1623 46.992C57.0369 45.8187 58.2103 44.912 59.6823 44.272C61.1756 43.6107 62.8396 43.28 64.6743 43.28C66.2956 43.28 67.7036 43.5467 68.8983 44.08C70.1143 44.592 71.0423 45.328 71.6823 46.288C72.3436 47.248 72.6743 48.3893 72.6743 49.712C72.6743 50.4373 72.5783 51.1627 72.3863 51.888C72.1943 52.592 71.8316 53.3387 71.2983 54.128C70.7649 54.9173 69.9863 55.8027 68.9623 56.784L61.3143 64.048L60.4503 62.48H73.5382V66H57.0263ZM79.5233 66V45.2L81.3473 47.088H74.7873V43.6H83.6833V66H79.5233Z" fill="#112211"/>
<path d="M359 18.25H341C340.172 18.25 339.5 18.9216 339.5 19.75V20.5C339.5 21.3284 340.172 22 341 22H359C359.828 22 360.5 21.3284 360.5 20.5V19.75C360.5 18.9216 359.828 18.25 359 18.25Z" fill="black"/>
<path d="M341.49 23.5C341.438 23.4997 341.385 23.5105 341.337 23.5318C341.289 23.553 341.246 23.5842 341.21 23.6232C341.175 23.6623 341.148 23.7083 341.132 23.7584C341.115 23.8085 341.11 23.8615 341.115 23.9139L342.349 35.7527C342.348 35.7561 342.348 35.7595 342.349 35.763C342.413 36.3105 342.676 36.8154 343.088 37.1817C343.5 37.548 344.033 37.7502 344.584 37.75H355.416C355.968 37.75 356.5 37.5477 356.911 37.1814C357.323 36.8151 357.587 36.3104 357.651 35.763V35.7531L358.882 23.9139C358.888 23.8615 358.882 23.8085 358.866 23.7584C358.849 23.7083 358.823 23.6623 358.787 23.6232C358.752 23.5842 358.709 23.553 358.66 23.5318C358.612 23.5105 358.56 23.4997 358.507 23.5H341.49ZM353.156 31.9698C353.227 32.0391 353.284 32.1219 353.323 32.2133C353.362 32.3048 353.382 32.403 353.383 32.5024C353.384 32.6019 353.365 32.7004 353.327 32.7924C353.289 32.8844 353.234 32.9679 353.163 33.0382C353.093 33.1085 353.009 33.1641 352.917 33.2018C352.825 33.2395 352.727 33.2585 352.627 33.2577C352.528 33.257 352.43 33.2365 352.338 33.1974C352.247 33.1583 352.164 33.1015 352.095 33.0302L350 30.9358L347.906 33.0302C347.764 33.1675 347.575 33.2436 347.378 33.2422C347.181 33.2408 346.992 33.162 346.853 33.0227C346.713 32.8834 346.634 32.6949 346.633 32.4979C346.632 32.3009 346.708 32.1112 346.845 31.9698L348.94 29.875L346.845 27.7802C346.708 27.6388 346.632 27.4491 346.633 27.2521C346.634 27.0551 346.713 26.8666 346.853 26.7273C346.992 26.588 347.181 26.5092 347.378 26.5078C347.575 26.5064 347.764 26.5826 347.906 26.7198L350 28.8142L352.095 26.7198C352.236 26.5826 352.426 26.5064 352.623 26.5078C352.82 26.5092 353.008 26.588 353.148 26.7273C353.287 26.8666 353.366 27.0551 353.367 27.2521C353.369 27.4491 353.293 27.6388 353.156 27.7802L351.061 29.875L353.156 31.9698Z" fill="black"/>
<path d="M19.684 157.75L15.988 149.35H17.284L20.68 157.102H19.936L23.356 149.35H24.556L20.872 157.75H19.684ZM28.9267 157.75V156.406L28.8667 156.154V153.862C28.8667 153.374 28.7227 152.998 28.4347 152.734C28.1547 152.462 27.7307 152.326 27.1627 152.326C26.7867 152.326 26.4187 152.39 26.0587 152.518C25.6987 152.638 25.3947 152.802 25.1467 153.01L24.6667 152.146C24.9947 151.882 25.3867 151.682 25.8427 151.546C26.3067 151.402 26.7907 151.33 27.2947 151.33C28.1667 151.33 28.8387 151.542 29.3107 151.966C29.7827 152.39 30.0187 153.038 30.0187 153.91V157.75H28.9267ZM26.8387 157.822C26.3667 157.822 25.9507 157.742 25.5907 157.582C25.2387 157.422 24.9667 157.202 24.7747 156.922C24.5827 156.634 24.4867 156.31 24.4867 155.95C24.4867 155.606 24.5667 155.294 24.7267 155.014C24.8947 154.734 25.1627 154.51 25.5307 154.342C25.9067 154.174 26.4107 154.09 27.0427 154.09H29.0587V154.918H27.0907C26.5147 154.918 26.1267 155.014 25.9267 155.206C25.7267 155.398 25.6267 155.63 25.6267 155.902C25.6267 156.214 25.7507 156.466 25.9987 156.658C26.2467 156.842 26.5907 156.934 27.0307 156.934C27.4627 156.934 27.8387 156.838 28.1587 156.646C28.4867 156.454 28.7227 156.174 28.8667 155.806L29.0947 156.598C28.9427 156.974 28.6747 157.274 28.2907 157.498C27.9067 157.714 27.4227 157.822 26.8387 157.822ZM32.1506 157.75V148.846H33.3026V157.75H32.1506ZM35.5022 157.75V151.39H36.6542V157.75H35.5022ZM36.0782 150.166C35.8542 150.166 35.6662 150.094 35.5142 149.95C35.3702 149.806 35.2982 149.63 35.2982 149.422C35.2982 149.206 35.3702 149.026 35.5142 148.882C35.6662 148.738 35.8542 148.666 36.0782 148.666C36.3022 148.666 36.4862 148.738 36.6302 148.882C36.7822 149.018 36.8582 149.19 36.8582 149.398C36.8582 149.614 36.7862 149.798 36.6422 149.95C36.4982 150.094 36.3102 150.166 36.0782 150.166ZM41.4817 157.822C40.8657 157.822 40.3137 157.686 39.8257 157.414C39.3457 157.142 38.9657 156.762 38.6857 156.274C38.4057 155.786 38.2657 155.218 38.2657 154.57C38.2657 153.922 38.4057 153.358 38.6857 152.878C38.9657 152.39 39.3457 152.01 39.8257 151.738C40.3137 151.466 40.8657 151.33 41.4817 151.33C42.0177 151.33 42.5017 151.45 42.9337 151.69C43.3657 151.93 43.7097 152.29 43.9657 152.77C44.2297 153.25 44.3617 153.85 44.3617 154.57C44.3617 155.29 44.2337 155.89 43.9777 156.37C43.7297 156.85 43.3897 157.214 42.9577 157.462C42.5257 157.702 42.0337 157.822 41.4817 157.822ZM41.5777 156.814C41.9777 156.814 42.3377 156.722 42.6577 156.538C42.9857 156.354 43.2417 156.094 43.4257 155.758C43.6177 155.414 43.7137 155.018 43.7137 154.57C43.7137 154.114 43.6177 153.722 43.4257 153.394C43.2417 153.058 42.9857 152.798 42.6577 152.614C42.3377 152.43 41.9777 152.338 41.5777 152.338C41.1697 152.338 40.8057 152.43 40.4857 152.614C40.1657 152.798 39.9097 153.058 39.7177 153.394C39.5257 153.722 39.4297 154.114 39.4297 154.57C39.4297 155.018 39.5257 155.414 39.7177 155.758C39.9097 156.094 40.1657 156.354 40.4857 156.538C40.8057 156.722 41.1697 156.814 41.5777 156.814ZM43.7497 157.75V156.034L43.8217 154.558L43.7017 153.082V148.846H44.8537V157.75H43.7497ZM52.0921 157.75V150.394H49.2121V149.35H56.1601V150.394H53.2801V157.75H52.0921ZM60.695 151.33C61.215 151.33 61.671 151.43 62.063 151.63C62.463 151.83 62.775 152.134 62.999 152.542C63.223 152.95 63.335 153.466 63.335 154.09V157.75H62.183V154.222C62.183 153.606 62.031 153.142 61.727 152.83C61.431 152.518 61.011 152.362 60.467 152.362C60.059 152.362 59.703 152.442 59.399 152.602C59.095 152.762 58.859 152.998 58.691 153.31C58.531 153.622 58.451 154.01 58.451 154.474V157.75H57.299V148.846H58.451V153.106L58.223 152.65C58.431 152.234 58.751 151.91 59.183 151.678C59.615 151.446 60.119 151.33 60.695 151.33ZM65.467 157.75V151.39H66.571V153.118L66.463 152.686C66.639 152.246 66.935 151.91 67.351 151.678C67.767 151.446 68.279 151.33 68.887 151.33V152.446C68.839 152.438 68.791 152.434 68.743 152.434C68.703 152.434 68.663 152.434 68.623 152.434C68.007 152.434 67.519 152.618 67.159 152.986C66.799 153.354 66.619 153.886 66.619 154.582V157.75H65.467ZM73.0649 157.822C72.5209 157.822 72.0409 157.722 71.6249 157.522C71.2169 157.322 70.8969 157.018 70.6649 156.61C70.4409 156.194 70.3289 155.674 70.3289 155.05V151.39H71.4809V154.918C71.4809 155.542 71.6289 156.01 71.9249 156.322C72.2289 156.634 72.6529 156.79 73.1969 156.79C73.5969 156.79 73.9449 156.71 74.2409 156.55C74.5369 156.382 74.7649 156.142 74.9249 155.83C75.0849 155.51 75.1649 155.126 75.1649 154.678V151.39H76.3169V157.75H75.2249V156.034L75.4049 156.49C75.1969 156.914 74.8849 157.242 74.4689 157.474C74.0529 157.706 73.5849 157.822 73.0649 157.822Z" fill="#112211"/>
<path d="M22.72 179.95C21.6133 179.95 20.6133 179.67 19.72 179.11C18.84 178.55 18.1467 177.737 17.64 176.67C17.1333 175.59 16.88 174.283 16.88 172.75C16.88 171.217 17.1333 169.917 17.64 168.85C18.1467 167.77 18.84 166.95 19.72 166.39C20.6133 165.83 21.6133 165.55 22.72 165.55C23.84 165.55 24.84 165.83 25.72 166.39C26.6 166.95 27.2933 167.77 27.8 168.85C28.32 169.917 28.58 171.217 28.58 172.75C28.58 174.283 28.32 175.59 27.8 176.67C27.2933 177.737 26.6 178.55 25.72 179.11C24.84 179.67 23.84 179.95 22.72 179.95ZM22.72 177.69C23.3733 177.69 23.94 177.517 24.42 177.17C24.9 176.81 25.2733 176.263 25.54 175.53C25.82 174.797 25.96 173.87 25.96 172.75C25.96 171.617 25.82 170.69 25.54 169.97C25.2733 169.237 24.9 168.697 24.42 168.35C23.94 167.99 23.3733 167.81 22.72 167.81C22.0933 167.81 21.5333 167.99 21.04 168.35C20.56 168.697 20.18 169.237 19.9 169.97C19.6333 170.69 19.5 171.617 19.5 172.75C19.5 173.87 19.6333 174.797 19.9 175.53C20.18 176.263 20.56 176.81 21.04 177.17C21.5333 177.517 22.0933 177.69 22.72 177.69ZM30.1375 179.75V178.01L35.6975 172.73C36.1642 172.29 36.5108 171.903 36.7375 171.57C36.9642 171.237 37.1108 170.93 37.1775 170.65C37.2575 170.357 37.2975 170.083 37.2975 169.83C37.2975 169.19 37.0775 168.697 36.6375 168.35C36.1975 167.99 35.5508 167.81 34.6975 167.81C34.0175 167.81 33.3975 167.93 32.8375 168.17C32.2908 168.41 31.8175 168.777 31.4175 169.27L29.5975 167.87C30.1442 167.137 30.8775 166.57 31.7975 166.17C32.7308 165.757 33.7708 165.55 34.9175 165.55C35.9308 165.55 36.8108 165.717 37.5575 166.05C38.3175 166.37 38.8975 166.83 39.2975 167.43C39.7108 168.03 39.9175 168.743 39.9175 169.57C39.9175 170.023 39.8575 170.477 39.7375 170.93C39.6175 171.37 39.3908 171.837 39.0575 172.33C38.7242 172.823 38.2375 173.377 37.5975 173.99L32.8175 178.53L32.2775 177.55H40.4575V179.75H30.1375ZM40.6734 181.75L47.2734 162.91H49.5134L42.9134 181.75H40.6734ZM49.3953 179.75V178.01L54.9553 172.73C55.422 172.29 55.7686 171.903 55.9953 171.57C56.222 171.237 56.3686 170.93 56.4353 170.65C56.5153 170.357 56.5553 170.083 56.5553 169.83C56.5553 169.19 56.3353 168.697 55.8953 168.35C55.4553 167.99 54.8086 167.81 53.9553 167.81C53.2753 167.81 52.6553 167.93 52.0953 168.17C51.5486 168.41 51.0753 168.777 50.6753 169.27L48.8553 167.87C49.402 167.137 50.1353 166.57 51.0553 166.17C51.9886 165.757 53.0286 165.55 54.1753 165.55C55.1886 165.55 56.0686 165.717 56.8153 166.05C57.5753 166.37 58.1553 166.83 58.5553 167.43C58.9686 168.03 59.1753 168.743 59.1753 169.57C59.1753 170.023 59.1153 170.477 58.9953 170.93C58.8753 171.37 58.6486 171.837 58.3153 172.33C57.982 172.823 57.4953 173.377 56.8553 173.99L52.0753 178.53L51.5353 177.55H59.7153V179.75H49.3953ZM63.5559 179.75L69.3359 166.79L70.0159 167.95H62.0759L63.3159 166.69V170.33H60.8959V165.75H71.7759V167.49L66.3359 179.75H63.5559Z" fill="#112211"/>
<path d="M312.298 148.993C311.154 148.993 310.227 149.92 310.227 151.064V179.436C310.227 180.58 311.154 181.507 312.298 181.507H359.929C361.073 181.507 362 180.58 362 179.436V151.064C362 149.92 361.072 148.993 359.929 148.993H312.298ZM341.148 158.683C342.408 158.683 343.418 158.961 344.062 159.22L343.622 161.988L343.331 161.841C342.731 161.582 341.96 161.333 340.898 161.351C339.625 161.351 339.037 161.918 339.037 162.449C339.03 163.048 339.724 163.442 340.86 164.033C342.735 164.945 343.602 166.05 343.59 167.504C343.565 170.155 341.347 171.869 337.93 171.869C336.473 171.853 335.068 171.544 334.309 171.188L334.766 168.327L335.185 168.531C336.252 169.008 336.943 169.201 338.244 169.201C339.178 169.201 340.181 168.81 340.189 167.954C340.195 167.394 339.77 166.996 338.505 166.37C337.272 165.758 335.637 164.735 335.656 162.899C335.675 160.416 337.937 158.683 341.148 158.683ZM314.805 159.089H320.052C320.759 159.116 321.329 159.343 321.526 160.11L322.657 165.947C322.657 165.948 322.657 165.95 322.657 165.95L322.997 167.7L326.183 159.089H329.629L324.506 171.693L321.063 171.696L318.323 161.525C319.953 162.389 321.342 163.389 322.146 164.765C321.939 164.329 321.665 163.838 321.316 163.354C320.909 162.79 320.03 162.062 319.662 161.752C318.382 160.673 316.643 159.801 314.765 159.34L314.805 159.089ZM330.999 159.103H334.369L332.261 171.688H328.891L330.999 159.103ZM350.034 159.103H352.587L355.26 171.688H352.196C352.196 171.688 351.892 170.242 351.793 169.801C351.311 169.801 347.942 169.796 347.563 169.796C347.435 170.137 346.868 171.688 346.868 171.688H343.4L348.304 160.149C348.652 159.329 349.243 159.103 350.034 159.103ZM350.285 162.488C350.119 162.956 349.83 163.712 349.85 163.679C349.85 163.679 348.812 166.446 348.541 167.164L351.267 167.162C351.014 165.962 350.76 164.762 350.506 163.563L350.285 162.488V162.488Z" fill="#112211"/>
</svg>
